<?xml version="1.0" encoding="UTF-8"?>
<svg xmlns="http://www.w3.org/2000/svg" width="634" height="62" viewBox="0 0 634 62" role="img" aria-label="Tech Stack Icons">
  <title>Tech Stack Icons</title>

  <style>
    @keyframes icons-wave {
      0%, 100% { transform: translateY(0); }
      50% { transform: translateY(-10px); }
    }
    .icon-wave {
      animation: icons-wave 1.8s ease-in-out infinite;
      transform-box: fill-box;
      transform-origin: center;
    }
    @keyframes popup {
      0% { opacity: 0; transform: scale(0); }
      100% { opacity: 1; transform: scale(1); }
    }
  </style>

  <!-- HTML5 -->
  <svg viewBox="-10.29 -10.29 44.59 44.59" class="icon-wave" style="animation-delay:0.00s" x="11" y="11" width="40" height="40" overflow="visible" preserveAspectRatio="xMidYMid meet">
    <rect x="-10.29" y="-10.29" width="44.59" height="44.59" rx="15" fill="#E34F26" opacity="0.12"/>
    <g style="animation:popup 0.6s cubic-bezier(0.68,-0.55,0.265,1.55) forwards">
      <title>HTML5</title>
      <path fill="#E34F26" d="M1.5 0h21l-1.91 21.563L11.977 24l-8.565-2.438L1.5 0zm7.031 9.75l-.232-2.718 10.059.003.23-2.622L5.412 4.41l.698 8.01h9.126l-.326 3.426-2.91.804-2.955-.81-.188-2.11H6.248l.33 4.171L12 19.351l5.379-1.443.744-8.157H8.531z"/>
    </g>
  </svg>

  <!-- CSS3 -->
  <svg viewBox="-10.29 -10.29 44.59 44.59" class="icon-wave" style="animation-delay:0.12s" x="63" y="11" width="40" height="40" overflow="visible" preserveAspectRatio="xMidYMid meet">
    <rect x="-10.29" y="-10.29" width="44.59" height="44.59" rx="15" fill="#1572B6" opacity="0.12"/>
    <g style="animation:popup 0.6s cubic-bezier(0.68,-0.55,0.265,1.55) forwards">
      <title>CSS3</title>
      <path fill="#1572B6" d="M1.5 0h21l-1.91 21.563L11.977 24l-8.565-2.438L1.5 0zm17.09 4.413L5.41 4.41l.213 2.622 10.125.002-.255 2.716h-6.64l.24 2.573h6.182l-.366 3.523-2.91.804-2.956-.81-.188-2.11h-2.61l.29 3.855L12 19.288l5.373-1.53L18.59 4.414z"/>
    </g>
  </svg>

  <!-- JavaScript -->
  <svg viewBox="-10.29 -10.29 44.59 44.59" class="icon-wave" style="animation-delay:0.24s" x="115" y="11" width="40" height="40" overflow="visible" preserveAspectRatio="xMidYMid meet">
    <rect x="-10.29" y="-10.29" width="44.59" height="44.59" rx="15" fill="#F7DF1E" opacity="0.15"/>
    <g style="animation:popup 0.6s cubic-bezier(0.68,-0.55,0.265,1.55) forwards">
      <title>JavaScript</title>
      <path fill="#F7DF1E" d="M0 0h24v24H0V0zm22.034 18.276c-.175-1.095-.888-2.015-3.003-2.873-.736-.345-1.554-.585-1.797-1.14-.091-.33-.105-.51-.046-.705.15-.646.915-.84 1.515-.66.39.12.75.42.976.9 1.034-.676 1.034-.676 1.755-1.125-.27-.42-.404-.601-.586-.78-.63-.705-1.469-1.065-2.834-1.034l-.705.089c-.676.165-1.32.525-1.71 1.005-1.14 1.291-.811 3.541.569 4.471 1.365 1.02 3.361 1.244 3.616 2.205.24 1.17-.87 1.545-1.966 1.41-.811-.18-1.26-.586-1.755-1.336l-1.83 1.051c.21.48.45.689.81 1.109 1.74 1.756 6.09 1.666 6.871-1.004.029-.09.24-.705.074-1.65l.046.067zm-8.983-7.245h-2.248c0 1.938-.009 3.864-.009 5.805 0 1.232.063 2.363-.138 2.711-.33.689-1.18.601-1.566.48-.396-.196-.597-.466-.83-.855-.063-.105-.11-.196-.127-.196l-1.825 1.125c.305.63.75 1.172 1.324 1.517.855.51 2.004.675 3.207.405.783-.226 1.458-.691 1.811-1.411.51-.93.402-2.07.397-3.346.012-2.054 0-4.109 0-6.179l.004-.056z"/>
    </g>
  </svg>

  <!-- TypeScript -->
  <svg viewBox="-10.29 -10.29 44.59 44.59" class="icon-wave" style="animation-delay:0.36s" x="167" y="11" width="40" height="40" overflow="visible" preserveAspectRatio="xMidYMid meet">
    <rect x="-10.29" y="-10.29" width="44.59" height="44.59" rx="15" fill="#3178C6" opacity="0.12"/>
    <g style="animation:popup 0.6s cubic-bezier(0.68,-0.55,0.265,1.55) forwards">
      <title>TypeScript</title>
      <path fill="#3178C6" d="M1.125 0C.502 0 0 .502 0 1.125v21.75C0 23.498.502 24 1.125 24h21.75c.623 0 1.125-.502 1.125-1.125V1.125C24 .502 23.498 0 22.875 0zm17.363 9.75c.612 0 1.154.037 1.627.111a6.38 6.38 0 0 1 1.306.34v2.458a3.95 3.95 0 0 0-.643-.361 5.093 5.093 0 0 0-.717-.26 5.453 5.453 0 0 0-1.426-.2c-.3 0-.573.028-.819.086a2.1 2.1 0 0 0-.623.242c-.17.104-.3.229-.393.374a.888.888 0 0 0-.14.49c0 .196.053.373.156.529.104.156.252.304.443.444s.423.276.696.41c.273.135.582.274.926.416.47.197.892.407 1.266.628.374.222.695.473.963.753.268.279.472.598.614.957.142.359.214.776.214 1.253 0 .657-.125 1.21-.373 1.656a3.033 3.033 0 0 1-1.012 1.085 4.38 4.38 0 0 1-1.487.596c-.566.12-1.163.18-1.79.18a9.916 9.916 0 0 1-1.84-.164 5.544 5.544 0 0 1-1.512-.493v-2.63a5.033 5.033 0 0 0 3.237 1.2c.333 0 .624-.03.872-.09.249-.06.456-.144.623-.25.166-.108.29-.234.373-.38a1.023 1.023 0 0 0-.074-1.089 2.12 2.12 0 0 0-.537-.5 5.597 5.597 0 0 0-.807-.444 27.72 27.72 0 0 0-1.007-.436c-.918-.383-1.602-.852-2.053-1.405-.45-.553-.676-1.222-.676-2.005 0-.614.123-1.141.369-1.582.246-.441.58-.804 1.004-1.089a4.494 4.494 0 0 1 1.47-.629 7.536 7.536 0 0 1 1.77-.201zm-15.113.188h9.563v2.166H9.506v9.646H6.789v-9.646H3.375z"/>
    </g>
  </svg>

  <!-- React -->
  <svg viewBox="-10.29 -10.29 44.59 44.59" class="icon-wave" style="animation-delay:0.48s" x="219" y="11" width="40" height="40" overflow="visible" preserveAspectRatio="xMidYMid meet">
    <rect x="-10.29" y="-10.29" width="44.59" height="44.59" rx="15" fill="#61DAFB" opacity="0.12"/>
    <g style="animation:popup 0.6s cubic-bezier(0.68,-0.55,0.265,1.55) forwards">
      <title>React</title>
      <path fill="#61DAFB" d="M14.23 12.004a2.236 2.236 0 0 1-2.235 2.236 2.236 2.236 0 0 1-2.236-2.236 2.236 2.236 0 0 1 2.235-2.236 2.236 2.236 0 0 1 2.236 2.236zm2.648-10.69c-1.346 0-3.107.96-4.888 2.622-1.78-1.653-3.542-2.602-4.887-2.602-.41 0-.783.093-1.106.278-1.375.793-1.683 3.264-.973 6.365C1.98 8.917 0 10.42 0 12.004c0 1.59 1.99 3.097 5.043 4.03-.704 3.113-.39 5.588.988 6.38.32.187.69.275 1.102.275 1.345 0 3.107-.96 4.888-2.624 1.78 1.654 3.542 2.603 4.887 2.603.41 0 .783-.09 1.106-.275 1.374-.792 1.683-3.263.973-6.365C22.02 15.096 24 13.59 24 12.004c0-1.59-1.99-3.097-5.043-4.032.704-3.11.39-5.587-.988-6.38a2.964 2.964 0 0 0-1.092-.278zm-.005 1.09c.225 0 .406.044.558.127.666.382.955 1.835.73 3.704-.054.46-.142.945-.25 1.44a23.476 23.476 0 0 0-3.107-.534A23.892 23.892 0 0 0 12 9.423a23.518 23.518 0 0 0-1.658-1.476 23.16 23.16 0 0 0-3.107.534 14.09 14.09 0 0 1-.251-1.443c-.23-1.868.054-3.32.714-3.707.19-.09.4-.127.605-.127zm-8.792 5.028c.432-.913.943-1.8 1.527-2.647.595.083 1.218.188 1.855.332-.178.84-.347 1.767-.456 2.726-.51.428-1.007.868-1.487 1.33a23.745 23.745 0 0 0-1.44-1.741zm6.325.557c-.401 1.02-.774 2.068-1.02 3.046-.592-.087-1.176-.2-1.756-.332.226-.78.524-1.575.87-2.368.345.09.69.17 1.04.24.286.058.578.101.866.126zm-7.96 0c.288-.025.58-.068.866-.126.35-.07.695-.15 1.04-.24.346.793.644 1.588.87 2.368-.58.132-1.164.245-1.756.332-.246-.978-.62-2.026-1.02-3.046zm.05 4.16c.51.097 1.028.176 1.555.237.124.645.281 1.28.476 1.897a23.8 23.8 0 0 0-1.82.635 21.34 21.34 0 0 1-.21-2.77zm12.21 0a21.37 21.37 0 0 1-.21 2.77 23.805 23.805 0 0 0-1.82-.635c.195-.617.352-1.252.477-1.897.526-.06 1.044-.14 1.553-.238zm-4.14 4.07c.645-.347 1.267-.726 1.864-1.143.194.595.356 1.173.48 1.724.245.085.46.167.666.246-.18.83-.44 1.477-.743 1.827-.192.219-.385.323-.582.323-.37 0-.816-.276-1.285-.84zm-4.7 0c-.47.564-.916.84-1.285.84-.197 0-.39-.104-.583-.323-.303-.35-.563-.997-.743-1.827.206-.079.42-.16.666-.246.124-.55.286-1.13.48-1.724.597.417 1.22.796 1.864 1.143zm.31-3.39c.614.082 1.24.134 1.87.134.63 0 1.257-.052 1.87-.135a23.6 23.6 0 0 1-1.87 2.05 23.615 23.615 0 0 1-1.87-2.05z"/>
    </g>
  </svg>

  <!-- Next.js -->
  <svg viewBox="-10.29 -10.29 44.59 44.59" class="icon-wave" style="animation-delay:0.60s" x="271" y="11" width="40" height="40" overflow="visible" preserveAspectRatio="xMidYMid meet">
    <rect x="-10.29" y="-10.29" width="44.59" height="44.59" rx="15" fill="#bbbbbb" opacity="0.1"/>
    <g style="animation:popup 0.6s cubic-bezier(0.68,-0.55,0.265,1.55) forwards">
      <title>Next.js</title>
      <path fill="#ffffff" d="M18.665 21.978C16.758 23.255 14.465 24 12 24 5.377 24 0 18.623 0 12S5.377 0 12 0s12 5.377 12 12c0 3.583-1.574 6.801-4.067 9.001L9.219 7.2H7.2v9.596h1.615V9.251l9.85 12.727Zm-3.332-8.533 1.6 2.061V7.2h-1.6v6.245Z"/>
    </g>
  </svg>

  <!-- Vue.js -->
  <svg viewBox="-10.29 -10.29 44.59 44.59" class="icon-wave" style="animation-delay:0.72s" x="323" y="11" width="40" height="40" overflow="visible" preserveAspectRatio="xMidYMid meet">
    <rect x="-10.29" y="-10.29" width="44.59" height="44.59" rx="15" fill="#4FC08D" opacity="0.12"/>
    <g style="animation:popup 0.6s cubic-bezier(0.68,-0.55,0.265,1.55) forwards">
      <title>Vue.js</title>
      <path fill="#4FC08D" d="M24.34 3.44H19.1l-7.1 12.07L4.9 3.44H-.66l12.66 21.12L24.66 3.44h-.32zm-12.34 9.6L5.3 2.76h4.04L12 7.92l2.66-5.16h4.04L12 13.04z"/>
    </g>
  </svg>

  <!-- Node.js -->
  <svg viewBox="-10.29 -10.29 44.59 44.59" class="icon-wave" style="animation-delay:0.84s" x="375" y="11" width="40" height="40" overflow="visible" preserveAspectRatio="xMidYMid meet">
    <rect x="-10.29" y="-10.29" width="44.59" height="44.59" rx="15" fill="#339933" opacity="0.12"/>
    <g style="animation:popup 0.6s cubic-bezier(0.68,-0.55,0.265,1.55) forwards">
      <title>Node.js</title>
      <path fill="#339933" d="M11.998 24c-.321 0-.641-.084-.922-.247l-2.936-1.737c-.438-.245-.224-.332-.08-.383.585-.203.703-.25 1.328-.604.065-.037.151-.023.218.017l2.256 1.339c.082.045.197.045.272 0l8.795-5.076c.082-.047.134-.141.134-.238V6.921c0-.099-.053-.192-.137-.242l-8.791-5.072c-.081-.047-.189-.047-.271 0L3.075 6.68C2.99 6.729 2.936 6.825 2.936 6.921v10.15c0 .097.054.189.139.235l2.409 1.392c1.307.654 2.108-.116 2.108-.89V7.787c0-.142.114-.253.256-.253h1.115c.139 0 .255.112.255.253v10.021c0 1.745-.95 2.745-2.604 2.745-.508 0-.909 0-2.026-.551L2.28 18.675c-.57-.329-.922-.945-.922-1.604V6.921c0-.659.353-1.275.922-1.603l8.795-5.082c.557-.315 1.296-.315 1.848 0l8.794 5.082c.57.329.924.944.924 1.603v10.15c0 .659-.354 1.273-.924 1.604l-8.794 5.078c-.28.162-.6.247-.922.247zm2.704-6.963c-3.853 0-4.655-1.766-4.655-3.248 0-.141.113-.253.254-.253h1.137c.127 0 .233.091.253.215.172 1.158.684 1.742 3.011 1.742 1.853 0 2.642-.419 2.642-1.402 0-.566-.223-.987-3.103-1.269-2.407-.238-3.895-.77-3.895-2.695 0-1.775 1.496-2.833 4.004-2.833 2.817 0 4.211.978 4.388 3.076a.255.255 0 0 1-.252.277h-1.141a.253.253 0 0 1-.247-.199c-.274-1.218-.94-1.607-2.747-1.607-2.023 0-2.258.705-2.258 1.233 0 .639.278.826 3.009 1.187 2.703.357 3.987.863 3.987 2.763 0 1.917-1.598 3.014-4.386 3.014z"/>
    </g>
  </svg>

  <!-- TailwindCSS -->
  <svg viewBox="-10.29 -10.29 44.59 44.59" class="icon-wave" style="animation-delay:0.96s" x="427" y="11" width="40" height="40" overflow="visible" preserveAspectRatio="xMidYMid meet">
    <rect x="-10.29" y="-10.29" width="44.59" height="44.59" rx="15" fill="#06B6D4" opacity="0.12"/>
    <g style="animation:popup 0.6s cubic-bezier(0.68,-0.55,0.265,1.55) forwards">
      <title>TailwindCSS</title>
      <path fill="#06B6D4" d="M12.001 4.8c-3.2 0-5.2 1.6-6 4.8 1.2-1.6 2.6-2.2 4.2-1.8.913.228 1.565.89 2.288 1.624C13.666 10.618 15.027 12 18.001 12c3.2 0 5.2-1.6 6-4.8-1.2 1.6-2.6 2.2-4.2 1.8-.913-.228-1.565-.89-2.288-1.624C16.337 6.182 14.976 4.8 12.001 4.8zM6.001 12c-3.2 0-5.2 1.6-6 4.8 1.2-1.6 2.6-2.2 4.2-1.8.913.228 1.565.89 2.288 1.624C7.666 17.818 9.027 19.2 12.001 19.2c3.2 0 5.2-1.6 6-4.8-1.2 1.6-2.6 2.2-4.2 1.8-.913-.228-1.565-.89-2.288-1.624C10.337 13.382 8.976 12 6.001 12z"/>
    </g>
  </svg>

  <!-- Git -->
  <svg viewBox="-10.29 -10.29 44.59 44.59" class="icon-wave" style="animation-delay:1.08s" x="479" y="11" width="40" height="40" overflow="visible" preserveAspectRatio="xMidYMid meet">
    <rect x="-10.29" y="-10.29" width="44.59" height="44.59" rx="15" fill="#F05032" opacity="0.12"/>
    <g style="animation:popup 0.6s cubic-bezier(0.68,-0.55,0.265,1.55) forwards">
      <title>Git</title>
      <path fill="#F05032" d="M23.546 10.93L13.067.452c-.604-.603-1.582-.603-2.188 0L8.708 2.627l2.76 2.76c.645-.215 1.379-.07 1.889.441.516.515.658 1.258.438 1.9l2.658 2.66c.645-.223 1.387-.078 1.9.435.721.72.721 1.884 0 2.604-.719.719-1.881.719-2.6 0-.539-.541-.674-1.337-.404-1.996L12.86 8.955v6.525c.176.086.342.203.488.348.713.721.713 1.883 0 2.6-.719.721-1.889.721-2.609 0-.719-.719-.719-1.879 0-2.598.182-.18.387-.316.605-.406V8.835c-.217-.091-.424-.222-.604-.401-.545-.545-.676-1.342-.396-2.009L7.636 3.7.45 10.881c-.6.605-.6 1.584 0 2.189l10.48 10.477c.604.604 1.582.604 2.186 0l10.43-10.43c.605-.603.605-1.582 0-2.187"/>
    </g>
  </svg>

  <!-- VS Code -->
  <svg viewBox="-10.29 -10.29 44.59 44.59" class="icon-wave" style="animation-delay:1.20s" x="531" y="11" width="40" height="40" overflow="visible" preserveAspectRatio="xMidYMid meet">
    <rect x="-10.29" y="-10.29" width="44.59" height="44.59" rx="15" fill="#007ACC" opacity="0.12"/>
    <g style="animation:popup 0.6s cubic-bezier(0.68,-0.55,0.265,1.55) forwards">
      <title>VS Code</title>
      <path fill="#007ACC" d="M23.15 2.587L18.21.21a1.494 1.494 0 0 0-1.705.29l-9.46 8.63-4.12-3.128a.999.999 0 0 0-1.276.057L.327 7.261A1 1 0 0 0 .326 8.74L3.899 12 .326 15.26a1 1 0 0 0 .001 1.479L1.65 17.94a.999.999 0 0 0 1.276.057l4.12-3.128 9.46 8.63a1.492 1.492 0 0 0 1.704.29l4.942-2.377A1.5 1.5 0 0 0 24 19.881V4.119a1.5 1.5 0 0 0-.85-1.532zm-5.146 14.861L10.826 12l7.178-5.448v10.896z"/>
    </g>
  </svg>

  <!-- Prisma -->
  <svg viewBox="-10.29 -10.29 44.59 44.59" class="icon-wave" style="animation-delay:1.32s" x="583" y="11" width="40" height="40" overflow="visible" preserveAspectRatio="xMidYMid meet">
    <rect x="-10.29" y="-10.29" width="44.59" height="44.59" rx="15" fill="#0ea5e9" opacity="0.12"/>
    <g style="animation:popup 0.6s cubic-bezier(0.68,-0.55,0.265,1.55) forwards">
      <title>Prisma</title>
      <path fill="#0ea5e9" d="M21.8074 18.2265L13.2575 0.69446C12.9373 0.0253108 12.1517 -0.210813 11.4992 0.110802C11.2609 0.232716 11.0639 0.430649 10.9338 0.678194L2.18011 17.5765C1.89216 18.1302 2.05027 18.8231 2.55408 19.1924L11.4879 25.7274C12.0389 26.1268 12.8044 25.993 13.1916 25.4297C13.2969 25.2728 13.3613 25.0908 13.3773 24.9021L14.7552 7.48941L20.4297 19.3295C20.7234 19.9555 21.4745 20.2201 22.0872 19.9194C22.6998 19.6186 22.9582 18.8527 22.6645 18.2268L21.8074 18.2265Z"/>
    </g>
  </svg>
</svg>
