<svg xmlns="http://www.w3.org/2000/svg" width="48" height="48" viewBox="0 0 48 48" fill="none">
  <defs>
    <filter id="glow" x="-50%" y="-50%" width="200%" height="200%">
      <feGaussianBlur stdDeviation="3" result="blur" />
      <feMerge>
        <feMergeNode in="blur" />
        <feMergeNode in="SourceGraphic" />
      </feMerge>
    </filter>
  </defs>
  <style>
    @keyframes wave {
      0%, 100% { transform: translateY(0); }
      50% { transform: translateY(-6px); }
    }
    .icon-wave {
      animation: wave 1.8s ease-in-out infinite;
      animation-delay: 1.41s;
      transform-box: fill-box;
      transform-origin: center;
    }
    .icon-container {
      transition: transform 0.2s ease-in-out;
    }
    .icon-container:hover {
      transform: scale(1.1);
      transform-origin: center;
    }
  </style>
  <g class="icon-wave">
    <g class="icon-container">
      <!-- Outer glowing border -->
      <rect x="2" y="2" width="44" height="44" rx="12" fill="none" stroke="#F24E1E" stroke-width="1.5" filter="url(#glow)" opacity="0.6"/>
      <!-- Sharp outer border -->
      <rect x="2" y="2" width="44" height="44" rx="12" fill="none" stroke="#F24E1E" stroke-width="1.5"/>
      <!-- Inner icon -->
      <svg x="12" y="12" width="24" height="24" viewBox="0 0 128 128" overflow="visible">
        <path fill="#0acf83" d="M45.5 129c11.9 0 21.5-9.6 21.5-21.5V86H45.5C33.6 86 24 95.6 24 107.5S33.6 129 45.5 129zm0 0"/><path fill="#a259ff" d="M24 64.5C24 52.6 33.6 43 45.5 43H67v43H45.5C33.6 86 24 76.4 24 64.5zm0 0"/><path fill="#f24e1e" d="M24 21.5C24 9.6 33.6 0 45.5 0H67v43H45.5C33.6 43 24 33.4 24 21.5zm0 0"/><path fill="#ff7262" d="M67 0h21.5C100.4 0 110 9.6 110 21.5S100.4 43 88.5 43H67zm0 0"/><path fill="#1abcfe" d="M110 64.5c0 11.9-9.6 21.5-21.5 21.5S67 76.4 67 64.5 76.6 43 88.5 43 110 52.6 110 64.5zm0 0"/>
      </svg>
    </g>
  </g>
</svg>
