<svg xmlns="http://www.w3.org/2000/svg" width="48" height="48" viewBox="0 0 48 48" fill="none">
  <defs>
    <filter id="glow" x="-50%" y="-50%" width="200%" height="200%">
      <feGaussianBlur stdDeviation="3" result="blur" />
      <feMerge>
        <feMergeNode in="blur" />
        <feMergeNode in="SourceGraphic" />
      </feMerge>
    </filter>
  </defs>
  <style>
    @keyframes wave {
      0%, 100% { transform: translateY(0); }
      50% { transform: translateY(-6px); }
    }
    .icon-wave {
      animation: wave 1.8s ease-in-out infinite;
      animation-delay: 0.00s;
      transform-box: fill-box;
      transform-origin: center;
    }
    .icon-container {
      transition: transform 0.2s ease-in-out;
    }
    .icon-container:hover {
      transform: scale(1.1);
      transform-origin: center;
    }
  </style>
  <g class="icon-wave">
    <g class="icon-container">
      <!-- Outer glowing border -->
      <rect x="2" y="2" width="44" height="44" rx="12" fill="none" stroke="#E34F26" stroke-width="1.5" filter="url(#glow)" opacity="0.6"/>
      <!-- Sharp outer border -->
      <rect x="2" y="2" width="44" height="44" rx="12" fill="none" stroke="#E34F26" stroke-width="1.5"/>
      <!-- Inner icon -->
      <svg x="12" y="12" width="24" height="24" viewBox="0 0 128 128" overflow="visible">
        <path fill="#E44D26" d="M19.037 113.876L9.032 1.661h109.936l-10.016 112.198-45.019 12.48z"/><path fill="#F16529" d="M64 116.8l36.378-10.086 8.559-95.878H64z"/><path fill="#EBEBEB" d="M64 52.455H45.788L44.53 38.361H64V24.599H29.489l.33 3.692 3.382 37.927H64zm0 35.743l-.061.017-15.327-4.14-.979-10.975H33.816l1.928 21.609 28.193 7.826.063-.017z"/><path fill="#fff" d="M63.952 52.455v13.763h16.947l-1.597 17.849-15.35 4.143v14.319l28.215-7.82.207-2.325 3.234-36.233.335-3.696h-3.708zm0-27.856v13.762h33.244l.276-3.092.628-6.978.329-3.692z"/>
      </svg>
    </g>
  </g>
</svg>
