<svg xmlns="http://www.w3.org/2000/svg" width="48" height="48" viewBox="0 0 48 48" fill="none">
  <defs>
    <filter id="glow" x="-50%" y="-50%" width="200%" height="200%">
      <feGaussianBlur stdDeviation="3" result="blur" />
      <feMerge>
        <feMergeNode in="blur" />
        <feMergeNode in="SourceGraphic" />
      </feMerge>
    </filter>
  </defs>
  <style>
    @keyframes wave {
      0%, 100% { transform: translateY(0); }
      50% { transform: translateY(-6px); }
    }
    .icon-wave {
      animation: wave 1.8s ease-in-out infinite;
      animation-delay: 0.63s;
      transform-box: fill-box;
      transform-origin: center;
    }
    .icon-container {
      transition: transform 0.2s ease-in-out;
    }
    .icon-container:hover {
      transform: scale(1.1);
      transform-origin: center;
    }
  </style>
  <g class="icon-wave">
    <g class="icon-container">
      <!-- Outer glowing border -->
      <rect x="2" y="2" width="44" height="44" rx="12" fill="none" stroke="#06B6D4" stroke-width="1.5" filter="url(#glow)" opacity="0.6"/>
      <!-- Sharp outer border -->
      <rect x="2" y="2" width="44" height="44" rx="12" fill="none" stroke="#06B6D4" stroke-width="1.5"/>
      <!-- Inner icon -->
      <svg x="12" y="12" width="24" height="24" viewBox="0 0 128 128" overflow="visible">
        <path d="M64.004 25.602c-17.067 0-27.73 8.53-32 25.597 6.398-8.531 13.867-11.73 22.398-9.597 4.871 1.214 8.352 4.746 12.207 8.66C72.883 56.629 80.145 64 96.004 64c17.066 0 27.73-8.531 32-25.602-6.399 8.536-13.867 11.735-22.399 9.602-4.87-1.215-8.347-4.746-12.207-8.66-6.27-6.367-13.53-13.738-29.394-13.738zM32.004 64c-17.066 0-27.73 8.531-32 25.602C6.402 81.066 13.87 77.867 22.402 80c4.871 1.215 8.352 4.746 12.207 8.66 6.274 6.367 13.536 13.738 29.395 13.738 17.066 0 27.73-8.53 32-25.597-6.399 8.531-13.867 11.73-22.399 9.597-4.87-1.214-8.347-4.746-12.207-8.66C55.128 71.371 47.868 64 32.004 64zm0 0" fill="#38bdf8"/>
      </svg>
    </g>
  </g>
</svg>
