<svg xmlns="http://www.w3.org/2000/svg" width="48" height="48" viewBox="0 0 48 48" fill="none">
  <defs>
    <filter id="glow" x="-50%" y="-50%" width="200%" height="200%">
      <feGaussianBlur stdDeviation="3" result="blur" />
      <feMerge>
        <feMergeNode in="blur" />
        <feMergeNode in="SourceGraphic" />
      </feMerge>
    </filter>
  </defs>
  <style>
    @keyframes wave {
      0%, 100% { transform: translateY(0); }
      50% { transform: translateY(-6px); }
    }
    .icon-wave {
      animation: wave 1.8s ease-in-out infinite;
      animation-delay: 0.47s;
      transform-box: fill-box;
      transform-origin: center;
    }
    .icon-container {
      transition: transform 0.2s ease-in-out;
    }
    .icon-container:hover {
      transform: scale(1.1);
      transform-origin: center;
    }
  </style>
  <g class="icon-wave">
    <g class="icon-container">
      <!-- Outer glowing border -->
      <rect x="2" y="2" width="44" height="44" rx="12" fill="none" stroke="#4FC08D" stroke-width="1.5" filter="url(#glow)" opacity="0.6"/>
      <!-- Sharp outer border -->
      <rect x="2" y="2" width="44" height="44" rx="12" fill="none" stroke="#4FC08D" stroke-width="1.5"/>
      <!-- Inner icon -->
      <svg x="12" y="12" width="24" height="24" viewBox="0 0 128 128" overflow="visible">
        <path d="M0 8.934l49.854.158 14.167 24.47 14.432-24.47L128 8.935l-63.834 110.14zm126.98.637l-24.36.02-38.476 66.053L25.691 9.592.942 9.572l63.211 107.89zm-25.149-.008l-22.745.168-15.053 24.647L49.216 9.73l-22.794-.168 37.731 64.476zm-75.834-.17l23.002.009m-23.002-.01l23.002.01" fill="none"/><path d="M25.997 9.393l23.002.009L64.035 34.36 79.018 9.404 102 9.398 64.15 75.053z" fill="#35495e"/><path d="M.91 9.569l25.067-.172 38.15 65.659L101.98 9.401l25.11.026-62.966 108.06z" fill="#41b883"/>
      </svg>
    </g>
  </g>
</svg>
